<?xml version="1.0" encoding="utf-8"?>
<!-- Generator: Adobe Illustrator 28.1.0, SVG Export Plug-In . SVG Version: 6.00 Build 0)  -->
<svg version="1.1" id="Layer_1" xmlns="http://www.w3.org/2000/svg" xmlns:xlink="http://www.w3.org/1999/xlink" x="0px" y="0px"
	 viewBox="0 0 19 26.2" style="enable-background:new 0 0 19 26.2;" xml:space="preserve">
<style type="text/css">
	.st0{fill:#707070;}
</style>
<path class="st0" d="M18.1,14c0.1,0,0.1-0.1,0.2-0.2c0.1-0.1,0.1-0.2,0.2-0.3s0.1-0.3,0.1-0.4c0-0.2-0.1-0.5-0.3-0.7
	c-0.1-0.1-0.1-0.1-0.2-0.2l-4.3-3.9c-0.4-0.4-1-0.3-1.4,0.1s-0.3,1,0.1,1.4l2.4,2.3H1.3c-0.6,0-1,0.4-1,1s0.4,1,1,1h13.6l-2.5,2.3
	c-0.4,0.4-0.4,1-0.1,1.4c0.4,0.4,1,0.4,1.4,0.1L18.1,14z"/>
</svg>
