<?xml version="1.0" encoding="utf-8"?>
<!-- Generator: Adobe Illustrator 28.1.0, SVG Export Plug-In . SVG Version: 6.00 Build 0)  -->
<svg version="1.1" id="Layer_1" xmlns="http://www.w3.org/2000/svg" xmlns:xlink="http://www.w3.org/1999/xlink" x="0px" y="0px"
	 viewBox="0 0 32 40" style="enable-background:new 0 0 32 40;" xml:space="preserve">
<style type="text/css">
	.st0{fill:#9E9E9E;}
</style>
<path class="st0" d="M27,6H10C8.3,6,7,7.3,7,9v3H5c-1.7,0-3,1.3-3,3v16c0,1.7,1.3,3,3,3h16c1.7,0,3-1.3,3-3v-1h3c1.7,0,3-1.3,3-3V9
	C30,7.3,28.7,6,27,6z M22,31c0,0.6-0.4,1-1,1H5c-0.6,0-1-0.4-1-1V15c0-0.6,0.4-1,1-1h16c0.6,0,1,0.4,1,1V31z M28,27c0,0.6-0.4,1-1,1
	h-3V15c0-1.7-1.3-3-3-3H9V9c0-0.6,0.4-1,1-1h17c0.6,0,1,0.4,1,1V27z"/>
</svg>
