<?xml version="1.0" encoding="utf-8"?>
<!-- Generator: Adobe Illustrator 28.1.0, SVG Export Plug-In . SVG Version: 6.00 Build 0)  -->
<svg version="1.1" id="Layer_1" xmlns="http://www.w3.org/2000/svg" xmlns:xlink="http://www.w3.org/1999/xlink" x="0px" y="0px"
	 viewBox="0 0 19 26.2" style="enable-background:new 0 0 19 26.2;" xml:space="preserve">
<style type="text/css">
	.st0{fill:#707070;}
</style>
<path class="st0" d="M18.2,9c0.1,0,0.1-0.1,0.2-0.2c0.1-0.1,0.1-0.2,0.2-0.3s0.1-0.3,0.1-0.4c0-0.2-0.1-0.5-0.3-0.7
	c-0.1-0.1-0.1-0.1-0.2-0.2l-4.3-3.9c-0.4-0.4-1-0.3-1.4,0.1s-0.3,1,0.1,1.4L15,7.1H1.4c-0.6,0-1,0.4-1,1s0.4,1,1,1H15l-2.5,2.3
	c-0.4,0.4-0.4,1-0.1,1.4c0.4,0.4,1,0.4,1.4,0.1L18.2,9z"/>
<path class="st0" d="M0.7,18.9C0.7,18.9,0.7,18.8,0.7,18.9c-0.2-0.2-0.2-0.3-0.3-0.3c-0.1-0.1-0.1-0.3-0.1-0.4
	c0-0.2,0.1-0.5,0.3-0.7c0.1-0.1,0.1-0.1,0.2-0.2l4.3-3.9c0.2-0.2,0.4-0.3,0.7-0.3c0.3,0,0.5,0.1,0.7,0.3c0.4,0.4,0.3,1-0.1,1.4
	L4,17.1h13.6c0.6,0,1,0.4,1,1s-0.4,1-1,1H4l2.5,2.3c0.4,0.4,0.4,1,0.1,1.4c-0.2,0.3-0.6,0.4-0.9,0.3c-0.2,0-0.3-0.1-0.5-0.2L0.8,19
	C0.8,18.9,0.8,18.9,0.7,18.9z"/>
</svg>
